Simulation
nRows=32
nColumns=15
endheader
time  TH_x TH_y TH_z SC_y  SC_z  SC_x  AC_y  AC_z  AC_x  GH_y  GH_z  GH_yy  EL_x  PS_y
5.745  0.000000  0.000000  0.000000  -50.39627323100398  19.358188408559403  33.069696190874296  73.31620954946797  -5.31859180488387  27.34707581656571  -9.09891472534571  61.361757104188904  -14.51802751244932  18.545329599534664  120.000000
5.80245  0.000000  0.000000  0.000000  -49.105653756927595  18.180060979762043  29.13556663649416  73.60983064147521  -5.202570153493894  27.419977928826366  -9.385323683559001  61.00406645123993  -13.866952528324854  18.847927289816848  120.000000
5.8599  0.000000  0.000000  0.000000  -47.62403248203134  16.55137648865693  24.439592216763682  73.83575067630498  -5.055557907390429  27.55280942320603  -9.925174116838722  60.51599848709183  -12.637343477287912  19.23963376341406  120.000000
5.91735  0.000000  0.000000  0.000000  -46.076999357584356  14.433696816277399  19.209714817112417  73.88288368081616  -4.934923704951788  27.700761168769564  -10.69990680029224  59.97239266945457  -10.786289379656058  19.63360675086575  120.000000
5.9748  0.000000  0.000000  0.000000  -44.600498014401126  11.821649050996964  13.705163461233148  73.64200826511787  -4.9169902741866505  27.794734569702953  -11.622967390277585  59.452344242103365  -8.358016920038791  19.935697866314857  120.000000
6.03225  0.000000  0.000000  0.000000  -43.28887290680336  8.751684782475424  8.204573849214066  73.02749158996204  -5.08121458806524  27.752278939571053  -12.591597062466013  59.0086963224362  -5.487247291540892  20.06740278539866  120.000000
6.089700000000001  0.000000  0.000000  0.000000  -42.13525015336856  5.321830266595966  2.999435767436297  71.99711870785346  -5.49043794425134  27.493016827896643  -13.563414016616193  58.632343561299116  -2.3692508159755716  19.976966105189828  120.000000
6.14715  0.000000  0.000000  0.000000  -41.00587401026313  1.7125209376386605  -1.603634168865616  70.55898692610523  -6.173709703266605  26.951547732454916  -14.585828153599612  58.216220778626194  0.7885309113947189  19.6386876987776  120.000000
6.2046  0.000000  0.000000  0.000000  -39.71566693742054  -1.7914385861789328  -5.299985290954341  68.7841526851898  -7.113692941529039  26.09494870927587  -15.694046400632296  57.553920500394376  3.7843705145180544  19.05175542616143  120.000000
6.26205  0.000000  0.000000  0.000000  -38.21359365177313  -4.824286229795  -7.8552670423762185  66.80875945053212  -8.24856767368868  24.929814663202908  -16.74261996690129  56.388529205543925  6.42469942741259  18.266978621394514  120.000000
6.3195  0.000000  0.000000  0.000000  -36.71889226278269  -7.036658224023474  -9.188445599442518  64.8048842131749  -9.496493810851382  23.484580019319303  -17.38620264916154  54.49693891372824  8.546733319267613  17.418747963629595  120.000000
6.37695  0.000000  0.000000  0.000000  -35.53165025787897  -8.210199963993986  -9.351057141562055  62.924998143733504  -10.810094646921266  21.797967681840376  -17.334509560202836  51.78862994253001  10.07301160439483  16.64024796155582  120.000000
6.4344  0.000000  0.000000  0.000000  -34.755638907210546  -8.337637186546948  -8.469817201693377  61.23493299561372  -12.136428554839922  19.907507698616765  -16.549396900516026  48.307049745765546  11.038753268849232  15.974760521223692  120.000000
6.49185  0.000000  0.000000  0.000000  -34.343923878800574  -7.63339699037254  -6.803401218938287  59.70960226512607  -13.257128186719221  17.788404258366803  -15.066507835981305  44.113421085833686  11.50037001730744  15.462112474536063  120.000000
6.549300000000001  0.000000  0.000000  0.000000  -34.1909833452261  -6.443662421765842  -4.73913324731597  58.2796700437914  -13.831805172694574  15.401926212178374  -12.808909740354453  39.28297436527398  11.408881812952082  15.156729061866162  120.000000
6.60675  0.000000  0.000000  0.000000  -34.165905529439854  -5.059280564089723  -2.6882013554710196  56.8811933854225  -13.64028828685874  12.841052996629987  -9.61687175975861  34.006552532397365  10.600175855603327  15.088385284711487  120.000000
6.6642  0.000000  0.000000  0.000000  -34.235286756189126  -3.6562369194868456  -1.008320039131145  55.46909057094759  -12.668549807621794  10.32195030147403  -5.198856647215956  28.611779038771747  8.758846596028457  15.256701201058517  120.000000
6.72165  0.000000  0.000000  0.000000  -34.43696546095914  -2.3755638903748997  0.05241754608104176  54.01841758981845  -11.018972137133773  8.039121113527623  0.906453286176381  23.50386020548055  5.38694940237168  15.622509510434988  120.000000
6.7791  0.000000  0.000000  0.000000  -34.78621823555158  -1.323447092809212  0.3932882555224841  52.52023443164154  -8.84119248595009  6.0992106632786784  9.159667122986216  19.058623308107713  -0.05366659862231526  16.111043183063046  120.000000
6.83655  0.000000  0.000000  0.000000  -35.261404325706074  -0.5244671595670924  0.07142394399838867  50.97356054699814  -6.3241583057836035  4.543103930548288  19.846509605035607  15.528287364416183  -7.928548555927675  16.616940908489457  120.000000
6.894  0.000000  0.000000  0.000000  -35.84588695884564  0.04313013517760888  -0.7612925007645531  49.410035975456616  -3.6567569745717883  3.365030831336615  32.85853886251728  13.034010310082593  -18.1525683113034  17.051310742462572  120.000000
6.95145  0.000000  0.000000  0.000000  -36.53244846005666  0.4123640144043101  -1.9352871282080637  47.87223065691718  -0.984661931526268  2.546776421658072  47.23550081071944  11.55538322138655  -29.779587363576184  17.352919759318148  120.000000
7.008900000000001  0.000000  0.000000  0.000000  -37.28838786447685  0.630381302444552  -3.29181415148675  46.390223826781245  1.593993644865425  2.0438071802951026  61.20710385582159  10.902181681550074  -41.07362934734994  17.487023595801187  120.000000
7.06635  0.000000  0.000000  0.000000  -38.07955062038698  0.7486282026009835  -4.699610958156673  45.005134755310145  4.003815721663324  1.7919216923726566  73.32660015352094  10.800576605013957  -50.664480866447995  17.466562091903576  120.000000
7.1238  0.000000  0.000000  0.000000  -38.878972390474246  0.8072144681322964  -6.0576623146726645  43.76149763345367  6.171875810112971  1.7462650185451885  83.14414752684752  11.00733697801488  -58.198100881140704  17.357654825539218  120.000000
7.18125  0.000000  0.000000  0.000000  -39.675226863248696  0.8242533153079681  -7.2923726765201335  42.69552201613442  8.05086257990865  1.8696423540685874  90.82390966658019  11.343783954252093  -63.92687820715772  17.24836605489583  120.000000
7.2387  0.000000  0.000000  0.000000  -40.46489233411609  0.8272364886196036  -8.355654834961769  41.84978149206025  9.627921490392994  2.1110676977013205  96.70052402863308  11.69028537191658  -68.25247111491534  17.20979744885158  120.000000
7.29615  0.000000  0.000000  0.000000  -41.24486404661571  0.8496741557907179  -9.214126097481179  41.25599030179323  10.911378376995051  2.4178348435231363  101.11781343750108  11.963203060031155  -71.54339614780842  17.272443310011433  120.000000
7.3536  0.000000  0.000000  0.000000  -42.0012189635129  0.9109565907824031  -9.8433431560639  40.91584508241913  11.913808399410096  2.7500469857015504  104.42274519609651  12.109181272816148  -74.11855386499208  17.42426535757698  120.000000
7.41105  0.000000  0.000000  0.000000  -42.70451578746664  1.0175771200986357  -10.230774257116963  40.7938614600475  12.64408999565305  3.0846237761539848  106.97564770885639  12.111934190688823  -76.26459420897991  17.633845922126653  120.000000
7.468500000000001  0.000000  0.000000  0.000000  -43.32766960610681  1.160401280712053  -10.379747705022309  40.825431084503144  13.11713250303827  3.401307891727726  109.0738013799915  11.98897166822539  -78.19210260190529  17.86572565614992  120.000000
7.52595  0.000000  0.000000  0.000000  -43.85299009342389  1.3319939267642886  -10.31039722861336  40.94974943388232  13.359530035920686  3.6694608547082312  110.89711778556114  11.782025694784242  -80.0023381582014  18.095419561443194  120.000000
